<svg width="150" height="140" viewBox="0 0 150 140" fill="none" xmlns="http://www.w3.org/2000/svg">
<path d="M133.589 52.8842L125.224 34.8074L107.147 26.4421L125.224 18.0768L133.589 0L141.955 18.0768L160.031 26.4421L141.955 34.8074L133.589 52.8842ZM150.256 112.5L144.051 99.3139L130.865 93.1088L144.051 86.9037L150.256 73.7179L156.461 86.9037L169.647 93.1088L156.461 99.3139L150.256 112.5ZM45.6089 159.775L43.2691 141.474C41.7603 140.872 40.1438 140.07 38.4195 139.068C36.6952 138.065 35.2454 136.976 34.0702 135.801L17.019 143.237L0 113.397L14.7435 102.532C14.5298 100.887 14.423 99.1345 14.423 97.2754C14.423 95.4164 14.5298 93.6642 14.7435 92.0189L0 81.1536L17.019 51.3143L34.0702 58.7502C35.2454 57.5749 36.6952 56.486 38.4195 55.4833C40.1438 54.4806 41.7603 53.6785 43.2691 53.0769L45.6089 34.7757H79.9032L82.2429 53.0769C83.7517 53.6785 85.3682 54.4806 87.0925 55.4833C88.8168 56.486 90.2666 57.5749 91.4419 58.7502L108.493 51.3143L125.512 81.1536L110.769 92.0189C110.982 93.6642 111.089 95.4164 111.089 97.2754C111.089 99.1345 110.982 100.887 110.769 102.532L125.512 113.397L108.493 143.237L91.4419 135.801C90.2666 136.976 88.8168 138.065 87.0925 139.068C85.3682 140.07 83.7517 140.872 82.2429 141.474L79.9032 159.775H45.6089ZM62.7372 120.032C69.0531 120.032 74.4279 117.821 78.8617 113.4C83.2954 108.979 85.5123 103.61 85.5123 97.2943C85.5123 90.9784 83.3017 85.6035 78.8805 81.1698C74.4594 76.7361 69.0908 74.5192 62.7749 74.5192C56.4589 74.5192 51.0841 76.7298 46.6504 81.1509C42.2166 85.5721 39.9998 90.9406 39.9998 97.2566C39.9998 103.573 42.2104 108.947 46.6315 113.381C51.0527 117.815 56.4212 120.032 62.7372 120.032ZM56.506 147.275H69.006L70.6727 132.275C74.7005 131.164 78.138 129.741 80.9852 128.005C83.8324 126.268 86.6449 123.942 89.4227 121.025L103.173 127.275L109.166 116.699L96.9227 107.692C98.0872 104.498 98.6695 101.025 98.6695 97.2754C98.6695 93.5254 98.0872 90.0532 96.9227 86.8588L109.006 77.6921L103.173 67.2754L89.4227 73.5254C86.6449 70.6088 83.8324 68.2824 80.9852 66.5463C78.138 64.8102 74.7005 63.3866 70.6727 62.2754L69.006 47.2754H56.506L54.8394 62.2754C50.8116 63.3866 47.3741 64.8102 44.5269 66.5463C41.6796 68.2824 38.8671 70.6088 36.0894 73.5254L22.3393 67.2754L16.506 77.6921L28.5893 86.8588C27.4248 90.0532 26.8212 93.5254 26.7785 97.2754C26.7357 101.025 27.3393 104.498 28.5893 107.692L16.3457 116.699L22.3393 127.275L36.0894 121.025C38.8671 123.942 41.6796 126.268 44.5269 128.005C47.3741 129.741 50.8116 131.164 54.8394 132.275L56.506 147.275Z" fill="white"/>
</svg>
